<?xml version="1.0" standalone="no"?>
<!DOCTYPE svg PUBLIC "-//W3C//DTD SVG 20010904//EN"
 "http://www.w3.org/TR/2001/REC-SVG-20010904/DTD/svg10.dtd">
<svg version="1.0" xmlns="http://www.w3.org/2000/svg"
 width="600.000000pt" height="600.000000pt" viewBox="0 0 600.000000 600.000000"
 preserveAspectRatio="xMidYMid meet">
<metadata>
Created by potrace 1.11, written by Peter Selinger 2001-2013
</metadata>
<g transform="translate(0.000000,600.000000) scale(0.100000,-0.100000)"
fill="#000000" stroke="none">
<path d="M2950 5990 c-127 -9 -385 -54 -495 -85 -187 -55 -476 -179 -527 -228
-7 -7 -30 -21 -51 -32 -102 -54 -350 -271 -467 -410 -184 -218 -329 -476 -419
-744 -44 -132 -74 -250 -68 -271 3 -11 1 -20 -4 -22 -14 -5 -39 -191 -45 -343
l-7 -140 -65 -165 c-35 -91 -79 -203 -97 -250 -18 -47 -96 -249 -175 -449
l-142 -363 4 -83 c4 -98 20 -128 88 -163 41 -20 58 -22 207 -22 l163 0 0 -355
c0 -344 1 -359 24 -455 80 -323 326 -594 631 -695 58 -20 91 -26 122 -21 23 3
45 1 48 -4 4 -6 92 -10 221 -10 l214 0 0 -340 0 -340 1230 0 1230 0 0 959 0
959 70 56 c211 171 417 425 551 681 246 467 325 1049 214 1565 -100 468 -368
915 -742 1237 -320 276 -751 479 -1123 529 -111 14 -406 16 -590 4z m-477
-557 c-7 -2 -19 -2 -25 0 -7 3 -2 5 12 5 14 0 19 -2 13 -5z m-960 -200 c-7 -2
-21 -2 -30 0 -10 3 -4 5 12 5 17 0 24 -2 18 -5z m810 0 c-7 -2 -21 -2 -30 0
-10 3 -4 5 12 5 17 0 24 -2 18 -5z m-90 -200 c-7 -2 -19 -2 -25 0 -7 3 -2 5
12 5 14 0 19 -2 13 -5z m1222 -177 c17 -3 73 -10 125 -16 385 -44 810 -195
1072 -383 280 -200 418 -424 418 -673 -1 -179 -62 -326 -207 -490 -132 -150
-315 -270 -603 -397 -68 -29 -286 -96 -400 -121 -435 -96 -927 -102 -1370 -15
-111 22 -298 71 -365 96 -508 190 -820 455 -902 766 -22 84 -22 244 1 322 108
374 524 677 1150 837 96 24 343 64 458 73 46 4 85 9 88 12 6 6 494 -4 535 -11z
m-2278 -22 c-3 -3 -12 -4 -19 -1 -8 3 -5 6 6 6 11 1 17 -2 13 -5z m10 -830
c-3 -3 -12 -4 -19 -1 -8 3 -5 6 6 6 11 1 17 -2 13 -5z m-330 -630 c-3 -3 -12
-4 -19 -1 -8 3 -5 6 6 6 11 1 17 -2 13 -5z m727 -1309 c-11 -8 -15 -20 -11
-35 3 -13 2 -19 -3 -14 -7 8 -14 47 -11 66 1 3 10 4 21 1 19 -5 19 -6 4 -18z
m-343 -30 c-9 -30 -9 -30 -10 10 -1 25 2 36 9 29 6 -6 6 -21 1 -39z m39 30 c0
-8 -2 -15 -4 -15 -2 0 -6 7 -10 15 -3 8 -1 15 4 15 6 0 10 -7 10 -15z m73 8
c3 -5 -5 -8 -18 -8 -13 0 -21 3 -18 8 2 4 10 7 18 7 8 0 16 -3 18 -7z m74 0
c-11 -3 -16 -11 -13 -19 5 -14 -5 -19 -17 -8 -12 12 6 34 27 33 18 -1 18 -2 3
-6z m88 -3 c3 -6 -1 -7 -9 -4 -18 7 -21 14 -7 14 6 0 13 -4 16 -10z m-33 -42
c-3 -13 -7 -16 -12 -8 -4 7 -5 21 -2 32 3 13 7 16 12 8 4 -7 5 -21 2 -32z
m-156 2 c0 -11 -3 -20 -7 -20 -10 0 -19 27 -12 34 12 11 19 6 19 -14z m41 14
c-3 -3 -12 -4 -19 -1 -8 3 -5 6 6 6 11 1 17 -2 13 -5z m70 -26 c-3 -8 -6 -5
-6 6 -1 11 2 17 5 13 3 -3 4 -12 1 -19z m237 -527 c4 -5 -3 -7 -14 -4 -23 6
-26 13 -6 13 8 0 17 -4 20 -9z m-32 -45 c2 -19 0 -32 -4 -30 -8 5 -12 64 -4
64 2 0 6 -15 8 -34z m48 16 c0 -5 -7 -9 -15 -9 -8 0 -12 4 -9 9 3 4 9 8 15 8
5 0 9 -4 9 -8z m-507 -169 c-7 -2 -19 -2 -25 0 -7 3 -2 5 12 5 14 0 19 -2 13
-5z m894 -419 c-3 -3 -12 -4 -19 -1 -8 3 -5 6 6 6 11 1 17 -2 13 -5z m400 0
c-3 -3 -12 -4 -19 -1 -8 3 -5 6 6 6 11 1 17 -2 13 -5z m486 -1 c-7 -2 -19 -2
-25 0 -7 3 -2 5 12 5 14 0 19 -2 13 -5z m-486 -199 c-3 -3 -12 -4 -19 -1 -8 3
-5 6 6 6 11 1 17 -2 13 -5z m818 -4 c3 -6 -1 -7 -9 -4 -18 7 -21 14 -7 14 6 0
13 -4 16 -10z m82 4 c-3 -3 -12 -4 -19 -1 -8 3 -5 6 6 6 11 1 17 -2 13 -5z
m66 -1 c-7 -2 -19 -2 -25 0 -7 3 -2 5 12 5 14 0 19 -2 13 -5z"/>
<path d="M1585 4246 c-26 -19 -33 -110 -34 -411 -1 -250 4 -278 50 -283 49 -6
53 12 57 250 l4 220 45 -84 c48 -89 69 -118 88 -118 19 0 51 41 94 120 l41 75
0 -205 c0 -224 6 -253 51 -258 53 -6 54 3 51 347 -2 174 -5 324 -8 333 -7 22
-38 32 -62 19 -11 -6 -36 -43 -57 -83 -21 -40 -54 -102 -73 -137 l-35 -63 -62
121 c-60 119 -97 171 -120 171 -6 0 -20 -6 -30 -14z"/>
<path d="M2575 4246 c-26 -19 -33 -110 -34 -411 -1 -250 4 -278 50 -283 49 -6
53 12 57 250 l4 220 45 -84 c48 -89 69 -118 88 -118 19 0 49 40 94 120 l41 75
0 -205 c0 -224 6 -253 51 -258 53 -6 54 3 51 347 -2 174 -5 324 -8 333 -7 22
-38 32 -62 19 -11 -6 -36 -43 -57 -83 -21 -40 -54 -102 -73 -137 l-35 -63 -62
121 c-60 119 -97 171 -120 171 -6 0 -20 -6 -30 -14z"/>
<path d="M2126 4228 c-19 -31 -33 -581 -16 -633 15 -45 28 -48 193 -43 150 3
170 11 165 62 -4 45 -35 56 -155 56 l-103 0 0 94 0 94 109 4 c123 4 144 13
139 62 -4 44 -35 56 -150 56 l-98 0 0 80 0 80 120 0 c113 0 120 1 134 23 20
29 11 62 -20 76 -15 6 -83 11 -164 11 -134 0 -140 -1 -154 -22z"/>
<path d="M3244 4232 c-95 -45 -149 -164 -147 -327 2 -216 86 -340 230 -338 95
1 159 63 187 183 42 177 -6 395 -102 468 -44 34 -113 39 -168 14z m115 -118
c55 -39 85 -191 61 -306 -18 -83 -63 -134 -113 -124 -40 7 -82 53 -96 103 -15
53 -13 200 3 246 30 82 93 117 145 81z"/>
<path d="M3610 4231 c-6 -13 -10 -137 -10 -335 0 -273 2 -317 16 -330 22 -22
50 -20 68 6 12 17 16 50 16 139 l0 117 46 7 c26 3 50 3 55 -2 5 -5 32 -63 60
-128 27 -66 57 -127 66 -137 29 -32 83 -17 83 22 0 9 -23 72 -50 140 l-50 124
30 28 c56 51 73 127 49 222 -27 106 -100 146 -270 146 -87 0 -99 -2 -109 -19z
m252 -131 c26 -27 30 -36 25 -67 -4 -20 -16 -46 -28 -59 -19 -21 -32 -24 -91
-24 l-68 0 0 90 0 90 66 0 c60 0 68 -3 96 -30z"/>
<path d="M4057 4229 c-21 -29 -13 -50 77 -209 l76 -135 0 -151 c0 -162 4 -174
51 -174 39 0 49 39 49 198 l0 134 74 132 c41 72 77 143 81 158 9 35 -10 68
-39 68 -30 0 -62 -37 -116 -135 -23 -41 -44 -77 -49 -79 -4 -3 -31 37 -60 87
-30 51 -60 100 -69 110 -21 23 -58 22 -75 -4z"/>
<path d="M1423 4143 c-4 -10 -26 -70 -49 -133 l-41 -115 46 -132 46 -133 37 0
37 0 -46 133 -47 133 43 120 c24 65 46 125 48 132 4 8 -6 12 -31 12 -26 0 -39
-5 -43 -17z"/>
<path d="M4760 4148 c0 -7 20 -67 44 -133 l44 -120 -44 -124 c-24 -68 -44
-127 -44 -132 0 -5 15 -9 34 -9 l33 0 47 133 47 132 -41 114 c-22 62 -45 122
-51 132 -11 22 -69 27 -69 7z"/>
<path d="M4656 4123 c-19 -67 -136 -502 -136 -507 0 -4 14 -6 32 -4 l32 3 68
250 c37 138 68 256 68 263 0 20 -58 15 -64 -5z"/>
<path d="M1684 3413 c2 -10 15 -64 27 -120 19 -86 25 -103 41 -103 21 0 22 3
38 84 14 67 20 62 39 -26 10 -45 17 -58 31 -58 15 0 22 17 40 98 12 53 24 107
27 120 4 17 1 22 -15 22 -16 0 -21 -11 -32 -75 -7 -42 -16 -73 -19 -70 -3 4
-13 36 -21 73 -13 55 -19 67 -35 67 -16 0 -22 -12 -34 -73 -16 -83 -23 -80
-41 15 -10 52 -16 63 -32 63 -14 0 -18 -5 -14 -17z"/>
<path d="M2110 3326 c0 -116 9 -136 59 -136 42 0 61 28 61 88 0 62 -26 97 -66
89 -21 -4 -24 -1 -24 29 0 24 -5 34 -15 34 -12 0 -15 -18 -15 -104z m78 -8
c14 -14 16 -57 3 -76 -16 -26 -46 -9 -49 27 -6 56 16 79 46 49z"/>
<path d="M2370 3310 l0 -120 53 0 c77 0 87 14 87 122 0 104 -11 118 -88 118
l-52 0 0 -120z m100 61 c14 -27 13 -114 -2 -129 -7 -7 -22 -12 -35 -12 -22 0
-23 3 -23 80 0 78 1 80 25 80 14 0 29 -8 35 -19z"/>
<path d="M2990 3310 c0 -113 1 -120 20 -120 19 0 20 7 20 120 0 113 -1 120
-20 120 -19 0 -20 -7 -20 -120z"/>
<path d="M3760 3310 l0 -120 75 0 c68 0 75 2 75 20 0 18 -7 20 -55 20 -54 0
-55 0 -55 30 0 30 1 30 55 30 48 0 55 2 55 20 0 18 -7 20 -55 20 -54 0 -55 0
-55 30 0 30 1 30 55 30 48 0 55 2 55 20 0 18 -7 20 -75 20 l-75 0 0 -120z"/>
<path d="M4030 3400 c0 -25 -4 -30 -24 -30 -13 0 -34 -9 -47 -19 -20 -16 -24
-28 -24 -76 0 -68 17 -85 82 -85 l43 0 0 120 c0 100 -2 120 -15 120 -10 0 -15
-10 -15 -30z m-12 -82 c7 -7 12 -29 12 -51 0 -36 -2 -38 -27 -35 -24 2 -29 8
-31 36 -6 57 16 80 46 50z"/>
<path d="M4080 3410 c0 -13 7 -20 20 -20 13 0 20 7 20 20 0 13 -7 20 -20 20
-13 0 -20 -7 -20 -20z"/>
<path d="M4170 3400 c0 -20 -5 -30 -15 -30 -8 0 -15 -9 -15 -20 0 -11 7 -20
15 -20 12 0 15 -14 15 -70 0 -56 3 -70 15 -70 12 0 15 14 15 70 0 56 3 70 15
70 8 0 15 9 15 20 0 11 -7 20 -15 20 -10 0 -15 10 -15 30 0 20 -5 30 -15 30
-10 0 -15 -10 -15 -30z"/>
<path d="M4250 3410 c0 -13 7 -20 20 -20 13 0 20 7 20 20 0 13 -7 20 -20 20
-13 0 -20 -7 -20 -20z"/>
<path d="M1970 3350 c-15 -15 -20 -33 -20 -73 0 -68 18 -87 83 -87 40 0 47 3
47 20 0 17 -7 20 -44 20 -30 0 -46 5 -50 15 -4 12 4 15 44 15 l50 0 0 39 c0
30 -6 44 -22 55 -31 22 -64 20 -88 -4z m68 -32 c19 -19 14 -28 -16 -28 -35 0
-45 9 -31 27 14 16 31 17 47 1z"/>
<path d="M2560 3350 c-15 -15 -20 -33 -20 -74 0 -70 15 -86 81 -86 43 0 50 3
47 18 -2 12 -16 18 -47 22 -65 7 -66 30 -2 30 l51 0 0 39 c0 30 -6 44 -22 55
-31 22 -64 20 -88 -4z m68 -32 c19 -19 14 -28 -16 -28 -35 0 -45 9 -31 27 14
16 31 17 47 1z"/>
<path d="M2694 3348 c3 -13 13 -53 23 -90 24 -95 43 -92 71 11 26 92 26 101 8
101 -8 0 -19 -22 -29 -57 -15 -60 -18 -59 -37 15 -7 27 -16 42 -27 42 -11 0
-14 -6 -9 -22z"/>
<path d="M2864 3362 c-35 -23 -46 -111 -18 -150 12 -18 25 -22 65 -22 42 0 49
3 49 20 0 17 -7 20 -45 20 -33 0 -45 4 -45 15 0 11 12 15 50 15 43 0 50 3 50
19 0 27 -19 74 -33 83 -15 10 -59 10 -73 0z m64 -54 c3 -14 -3 -18 -27 -18
-29 0 -41 17 -24 34 13 13 48 1 51 -16z"/>
<path d="M3079 3351 c-20 -16 -24 -28 -24 -76 0 -63 17 -85 66 -85 38 0 59 33
59 92 0 77 -49 111 -101 69z m59 -33 c14 -14 16 -57 3 -76 -16 -26 -46 -9 -49
27 -6 56 16 79 46 49z"/>
<path d="M3200 3251 c0 -114 1 -121 20 -121 16 0 20 7 20 30 0 25 4 30 23 30
46 0 62 23 62 89 0 33 -5 65 -12 72 -6 6 -35 14 -62 17 l-51 5 0 -122z m85 29
c0 -39 -3 -45 -22 -48 -21 -3 -23 0 -23 48 0 48 2 51 23 48 19 -3 22 -9 22
-48z"/>
<path d="M3370 3350 c-15 -15 -20 -33 -20 -74 0 -70 15 -86 81 -86 43 0 50 3
47 18 -2 12 -16 18 -47 22 -65 7 -66 30 -2 30 l51 0 0 35 c0 42 -29 75 -65 75
-14 0 -34 -9 -45 -20z m68 -32 c19 -19 14 -28 -16 -28 -35 0 -45 9 -31 27 14
16 31 17 47 1z"/>
<path d="M3510 3280 c0 -73 3 -90 15 -90 11 0 15 11 15 39 0 41 31 91 56 91 8
0 14 9 14 20 0 21 -33 29 -45 10 -9 -15 -25 -12 -25 5 0 8 -7 15 -15 15 -12 0
-15 -17 -15 -90z"/>
<path d="M4087 3363 c-4 -3 -7 -44 -7 -90 0 -76 2 -83 20 -83 19 0 20 7 20 90
0 68 -3 90 -13 90 -8 0 -17 -3 -20 -7z"/>
<path d="M4250 3280 c0 -83 1 -90 20 -90 19 0 20 7 20 90 0 83 -1 90 -20 90
-19 0 -20 -7 -20 -90z"/>
<path d="M4330 3350 c-25 -25 -27 -105 -4 -138 17 -25 60 -29 88 -9 23 17 32
88 16 126 -18 43 -67 54 -100 21z m65 -70 c0 -36 -4 -45 -19 -48 -22 -5 -36
14 -36 49 0 29 18 51 40 47 11 -2 15 -16 15 -48z"/>
<path d="M4460 3279 c0 -82 2 -89 20 -89 17 0 19 8 22 68 3 64 4 67 28 67 24
0 25 -3 28 -67 2 -52 6 -68 17 -68 12 0 15 16 15 75 0 66 -2 76 -22 89 -13 8
-42 14 -65 14 l-43 1 0 -90z"/>
</g>
</svg>
